<svg width="150" height="150" viewBox="0 0 150 150" fill="none" xmlns="http://www.w3.org/2000/svg">
    <g id="revolver">
        <g id="bullets">
            <circle id="blank5" cx="34" cy="51" r="19" fill="#D9D9D9"/>
            <circle id="blank4" cx="34" cy="98.5" r="19" fill="#D9D9D9"/>
            <circle id="blank3" cx="75" cy="122" r="19" fill="#D9D9D9"/>
            <circle id="blank2" cx="116" cy="98.5" r="19" fill="#D9D9D9"/>
            <circle id="blank1" cx="116" cy="51" r="19" fill="#D9D9D9"/>
            <circle id="live1" cx="75" cy="28" r="19" fill="#D9D9D9"/>
        </g>
        <g id="chamber" opacity="0.46">
            <path fill-rule="evenodd" clip-rule="evenodd" d="M75 0C75.9906 3.92683e-09 76.9767 0.0195352 77.958 0.0576172C78.5545 0.080749 79.1494 0.111455 79.7422 0.148438C86.2972 0.557698 92.6243 1.809 98.6162 3.79492C99.6328 12.9115 107.365 20 116.754 20C119.414 19.9999 121.941 19.4304 124.221 18.4072C136.427 29.0307 145.163 43.5374 148.505 60.0029C143.959 63.3222 141.006 68.6908 141.006 74.75C141.006 80.8478 143.997 86.2464 148.592 89.5605C145.317 106.206 136.535 120.875 124.221 131.593C121.941 130.57 119.414 130 116.754 130C107.365 130 99.6328 137.088 98.6162 146.205C92.6243 148.191 86.2972 149.442 79.7422 149.852C79.1494 149.889 78.5545 149.919 77.958 149.942C76.9767 149.98 75.9906 150 75 150C74.0091 150 73.0225 149.98 72.041 149.942C71.4445 149.919 70.8497 149.889 70.2568 149.852C63.7018 149.442 57.3747 148.191 51.3828 146.205C50.3661 137.089 42.6347 130 33.2461 130C30.5858 130 28.0586 130.57 25.7793 131.593C13.4652 120.875 4.68248 106.206 1.40723 89.5605C6.0023 86.2465 8.99414 80.8479 8.99414 74.75C8.99414 68.6905 6.04004 63.3222 1.49414 60.0029C4.83621 43.5374 13.573 29.0307 25.7793 18.4072C28.0586 19.4304 30.5858 19.9999 33.2461 20C42.6347 20 50.3661 12.9115 51.3828 3.79492C51.3932 3.79147 51.4036 3.78762 51.4141 3.78418C57.3967 1.80423 63.7132 0.557 70.2568 0.148438C70.8497 0.111446 71.4445 0.0807564 72.041 0.0576172C73.0225 0.01952 74.0091 0 75 0ZM75 66C70.0294 66 66 70.0294 66 75C66 79.9706 70.0294 84 75 84C79.9706 84 84 79.9706 84 75C84 70.0294 79.9706 66 75 66Z" fill="#D9D9D9"/>
            <path d="M106.442 143.11C105.315 143.631 104.173 144.126 103.017 144.592L103.018 144.591C103.595 144.358 104.17 144.118 104.74 143.871C105.311 143.624 105.879 143.371 106.442 143.11Z" fill="#D9D9D9"/>
        </g>
    </g>
</svg>
